<?xml version="1.0" standalone="no"?>
<!DOCTYPE svg PUBLIC "-//W3C//DTD SVG 20010904//EN"
 "http://www.w3.org/TR/2001/REC-SVG-20010904/DTD/svg10.dtd">
<svg version="1.0" xmlns="http://www.w3.org/2000/svg"
 width="2048.000000pt" height="2048.000000pt" viewBox="0 0 2048.000000 2048.000000"
 preserveAspectRatio="xMidYMid meet">
<metadata>
Created by potrace 1.15, written by Peter Selinger 2001-2017
</metadata>
<g transform="translate(0.000000,2048.000000) scale(0.100000,-0.100000)"
fill="#000000" stroke="none">
<path d="M9820 17192 c-6 -23 -17 -48 -25 -56 -11 -11 -15 -40 -15 -113 0 -54
-5 -118 -11 -143 -6 -25 -12 -103 -14 -175 -2 -71 -8 -224 -14 -340 -18 -337
-30 -1099 -34 -2010 0 -213 -4 -332 -11 -337 -7 -5 -7 -18 1 -40 8 -23 10
-102 6 -268 -7 -296 -7 -276 -3 -335 1 -27 0 -142 -4 -255 -3 -113 -2 -250 2
-305 5 -55 5 -102 2 -105 -6 -4 -10 -320 -8 -597 0 -40 0 -94 0 -120 0 -27 -2
-147 -6 -268 -3 -121 -8 -375 -10 -565 -4 -236 -9 -346 -16 -348 -8 -3 -7 -8
1 -18 7 -8 9 -17 7 -20 -3 -3 -2 -22 3 -42 17 -73 21 -71 -194 -71 -106 0
-214 0 -242 1 -27 0 -68 0 -90 -2 -22 -2 -58 -3 -80 -3 -22 1 -146 1 -275 1
-129 0 -257 0 -285 0 -150 2 -485 1 -1810 -3 -803 -3 -1476 -5 -1495 -5 -174
3 -294 1 -400 -7 -69 -5 -183 -6 -255 -3 -71 4 -157 3 -190 -2 -40 -6 -80 -6
-120 2 -45 8 -73 8 -110 0 -27 -6 -90 -10 -140 -9 -78 1 -254 -6 -670 -27
-117 -6 -147 -21 -106 -55 18 -15 41 -19 110 -21 101 -2 133 -5 223 -18 37 -5
159 -9 270 -9 112 0 289 -3 393 -6 105 -4 372 -9 595 -11 223 -3 433 -7 468
-10 38 -4 62 -2 62 4 0 7 12 7 34 1 20 -6 146 -7 308 -3 150 3 298 6 328 5
308 -6 729 -7 746 0 12 4 24 6 27 3 8 -8 258 -10 263 -2 3 5 33 5 67 2 57 -5
729 -8 752 -4 6 1 35 1 65 -1 49 -2 267 -3 435 0 48 0 312 2 455 3 14 0 165
-1 335 -2 171 -1 317 2 326 5 9 3 36 1 60 -4 24 -6 47 -7 51 -3 4 4 25 6 46 4
38 -4 39 -5 33 -35 -4 -18 -4 -52 0 -77 4 -25 5 -63 3 -85 -10 -93 -10 -245 0
-248 7 -2 6 -10 -3 -20 -8 -11 -11 -29 -7 -49 3 -18 2 -39 -3 -46 -4 -8 -2
-37 5 -68 7 -33 9 -66 4 -83 -4 -15 -6 -40 -3 -55 3 -14 1 -26 -5 -26 -7 0 -7
-10 1 -29 8 -23 8 -36 -2 -54 -9 -17 -10 -30 -3 -43 6 -11 8 -85 6 -179 -2
-88 -3 -194 -3 -235 0 -109 1 -106 -4 -215 -3 -55 -7 -115 -9 -133 -2 -18 -1
-35 4 -38 5 -3 6 -9 3 -14 -3 -4 -6 -87 -7 -184 -3 -146 -6 -176 -18 -180 -11
-2 -10 -4 4 -5 12 -1 16 -6 12 -17 -3 -9 -6 -20 -6 -25 0 -5 -7 -9 -15 -9 -8
0 -15 -4 -15 -10 0 -5 7 -10 15 -10 12 0 15 -14 15 -70 0 -60 -3 -70 -17 -70
-14 0 -15 -2 -4 -9 9 -6 12 -20 9 -40 -2 -17 0 -31 5 -31 5 0 7 -6 4 -12 -2
-7 -9 -12 -14 -11 -5 1 -10 -4 -10 -12 0 -8 4 -12 9 -9 14 9 9 -4 -8 -21 -15
-15 -15 -17 5 -22 25 -6 27 -16 5 -37 -8 -9 -11 -16 -5 -16 6 0 10 -17 9 -40
-1 -22 -5 -40 -10 -40 -4 0 -8 -4 -8 -10 0 -5 7 -10 15 -10 10 0 13 -9 9 -32
-2 -18 -4 -110 -4 -204 0 -94 -5 -185 -10 -202 -5 -21 -4 -42 3 -62 9 -24 9
-33 0 -38 -7 -5 -12 -24 -11 -43 1 -20 -2 -41 -6 -47 -4 -7 -3 -12 3 -12 10 0
9 -457 -4 -1925 -4 -368 -7 -943 -8 -1278 -1 -334 -5 -607 -9 -607 -5 0 -8
-18 -8 -40 0 -22 3 -40 8 -40 4 0 7 -199 8 -443 0 -451 6 -538 40 -571 8 -8
14 -19 14 -25 0 -6 10 -11 23 -11 19 0 27 10 41 51 13 36 21 47 27 37 7 -10 9
-10 9 0 0 6 8 12 19 12 41 0 76 298 61 515 -5 75 1 562 14 1045 1 41 -2 122
-6 179 -8 107 -5 127 13 101 8 -11 9 -2 4 30 -20 129 -22 219 -19 720 6 949
18 2121 23 2130 8 16 6 487 -2 498 -6 8 -6 12 1 12 6 0 9 8 7 18 -1 9 4 29 11
44 12 22 11 27 -2 32 -8 3 -12 10 -9 16 4 6 11 7 17 4 6 -4 6 1 -1 14 -6 11
-12 42 -12 69 -2 70 0 85 11 78 6 -3 10 1 10 10 0 9 5 13 10 10 6 -3 10 1 10
10 0 9 -9 19 -20 22 -27 7 -30 25 -24 118 2 44 4 148 4 230 -1 83 -1 166 -1
185 1 19 1 106 1 193 0 98 4 157 11 157 6 0 7 20 3 53 -4 28 -7 69 -7 90 -1
20 -5 37 -10 37 -5 0 -4 6 2 14 7 8 9 35 6 72 -7 76 -7 67 0 154 3 41 10 87
15 102 5 15 5 30 0 33 -11 7 -10 145 1 145 14 0 11 17 -5 33 -12 12 -13 21 -4
51 6 20 15 36 20 36 4 0 8 7 8 16 0 10 6 14 15 10 8 -3 15 0 15 5 0 6 -9 9
-20 6 -11 -3 -20 -1 -20 5 0 5 -5 6 -12 2 -8 -5 -9 2 -5 24 4 17 2 32 -4 34
-7 2 -6 14 2 33 7 17 11 59 9 95 -3 73 -3 90 2 178 2 34 1 62 -2 62 -3 0 -3
44 -1 97 2 54 4 117 4 141 0 47 2 49 29 25 10 -9 21 -13 25 -9 4 4 1 11 -6 15
-10 7 -11 13 -1 31 14 26 7 50 -15 50 -8 0 -15 7 -15 15 0 16 33 18 235 16
128 -1 1194 -1 1265 0 36 1 70 6 77 11 7 5 14 5 17 -1 9 -14 523 -14 531 -1 4
6 12 7 18 3 20 -12 32 -13 284 -14 143 0 249 3 259 9 11 6 27 7 41 1 13 -5 70
-9 126 -8 56 0 111 0 122 -1 11 0 50 0 86 1 37 1 70 -1 76 -4 5 -3 47 -4 93
-1 75 3 754 5 1365 3 1153 -4 1998 9 2050 31 20 8 71 12 148 11 77 -2 117 1
117 8 0 6 -13 11 -29 11 -17 0 -33 5 -36 10 -3 6 -26 10 -51 10 -24 0 -44 4
-44 9 0 5 -8 12 -17 14 -17 4 -17 5 0 6 28 2 20 19 -13 26 -16 4 -30 11 -30
17 0 6 24 7 65 3 48 -5 65 -4 65 5 0 8 -24 11 -82 10 -46 -1 -155 3 -243 9
-88 6 -410 11 -715 12 -305 0 -575 0 -600 1 -194 2 -1425 1 -1840 -1 -283 -1
-783 -2 -1110 -1 -327 0 -602 0 -610 0 -41 -1 -1298 -9 -1320 -9 -85 3 -173 3
-229 0 l-64 -5 -5 35 c-6 44 -6 58 1 217 4 73 7 238 8 365 1 132 5 240 11 251
6 11 6 16 0 12 -10 -6 -15 343 -6 377 3 9 12 17 20 17 8 0 14 9 14 20 0 11 -6
20 -13 20 -8 0 -14 6 -14 13 -7 122 -3 257 8 274 10 17 10 27 1 48 -8 18 -9
32 -2 45 5 10 10 27 10 37 0 15 -2 16 -11 3 -9 -12 -10 -12 -5 3 3 10 6 21 6
24 0 3 7 0 15 -7 13 -10 15 -9 15 9 0 12 -4 20 -9 16 -6 -3 -6 7 0 27 13 45
12 108 -1 88 -7 -10 -10 -11 -11 -2 -1 6 -3 24 -4 40 -2 15 -6 39 -10 55 -5
17 -3 27 4 27 6 0 11 9 11 20 0 11 -4 20 -10 20 -6 0 -7 47 -3 128 4 70 6 141
6 157 -1 96 -2 254 -2 280 1 17 0 64 -1 105 -2 41 0 138 5 215 4 77 7 151 7
165 -1 14 -3 212 -6 440 -4 373 -2 460 20 580 4 26 3 31 -5 20 -15 -21 -15
117 0 177 8 30 9 47 2 52 -6 3 -9 32 -7 66 6 111 4 827 -2 1130 -4 165 -7 318
-6 340 0 22 -6 88 -14 147 -8 60 -12 130 -8 157 4 30 2 56 -5 70 -9 15 -9 37
-2 79 10 54 3 120 -12 115 -20 -8 -27 0 -27 27 0 17 -9 40 -19 52 l-20 20 -11
-40z"/>
<path d="M7786 13502 c-3 -5 -43 -12 -88 -15 -83 -6 -128 -17 -181 -43 -16 -8
-35 -14 -43 -14 -8 0 -22 -4 -32 -9 -9 -5 -39 -17 -67 -27 -27 -9 -54 -23 -58
-31 -4 -7 -15 -13 -22 -13 -8 0 -15 -4 -15 -9 0 -5 -13 -12 -30 -16 -16 -4
-30 -11 -30 -16 0 -5 -7 -9 -15 -9 -7 0 -18 -6 -22 -13 -4 -7 -27 -26 -50 -43
-24 -16 -45 -36 -48 -45 -3 -9 -15 -21 -28 -28 -12 -7 -38 -33 -57 -59 -19
-26 -43 -56 -53 -67 -10 -11 -30 -44 -43 -72 -14 -29 -29 -53 -33 -53 -8 0
-34 -57 -53 -117 -7 -24 -16 -43 -20 -43 -5 0 -8 -10 -8 -23 0 -13 -4 -27 -10
-33 -5 -5 -12 -42 -16 -82 -4 -40 -11 -75 -15 -78 -12 -7 -10 -434 1 -499 18
-102 32 -160 41 -169 5 -6 9 -20 9 -32 0 -12 9 -33 20 -47 11 -14 20 -31 20
-37 0 -50 209 -292 263 -305 14 -4 28 -13 31 -21 3 -8 12 -14 21 -14 8 0 15
-3 15 -8 0 -8 35 -24 92 -42 21 -6 40 -16 43 -21 4 -5 19 -9 36 -9 16 0 29 -4
29 -10 0 -5 20 -10 45 -10 25 0 45 -4 45 -10 0 -5 24 -10 54 -10 29 0 67 -7
82 -15 23 -12 73 -15 246 -15 134 0 219 4 223 10 3 6 34 10 68 10 37 0 71 6
82 14 11 7 53 17 93 21 39 4 75 11 78 16 3 5 16 9 30 9 13 0 24 5 24 10 0 6 8
10 17 10 24 0 83 23 83 32 0 4 9 8 20 8 11 0 20 5 20 10 0 6 6 10 14 10 17 0
89 40 94 52 2 4 8 8 12 8 11 0 35 21 113 98 92 90 117 118 117 131 0 6 4 11 9
11 5 0 13 10 17 23 4 12 10 24 14 27 14 9 80 144 80 162 0 10 4 18 9 18 11 0
31 55 31 86 0 12 4 24 9 26 6 2 13 39 17 83 4 44 12 83 18 87 15 10 14 406 -2
473 -6 28 -17 79 -23 115 -7 36 -15 67 -19 70 -4 3 -11 20 -15 38 -4 18 -13
36 -21 39 -8 3 -14 13 -14 22 0 22 -45 106 -84 156 -42 54 -167 174 -188 181
-10 3 -18 10 -18 15 0 5 -9 9 -20 9 -11 0 -20 5 -20 10 0 6 -9 10 -19 10 -11
0 -21 5 -23 11 -4 13 -103 49 -135 49 -12 0 -25 5 -28 10 -3 6 -23 10 -45 10
-24 0 -40 5 -44 15 -4 11 -21 15 -65 15 -33 0 -63 5 -66 10 -8 12 -491 14
-499 2z"/>
<path d="M7290 9724 c-8 -2 -63 -8 -121 -13 -171 -15 -239 -56 -239 -145 0
-40 21 -99 43 -121 10 -10 63 -18 168 -26 274 -22 341 -75 384 -299 33 -169
31 -1441 -2 -1727 l-6 -53 -245 0 c-231 0 -246 -1 -282 -21 -67 -38 -78 -110
-34 -210 l27 -59 1027 0 c1142 0 1111 -2 1150 63 28 45 26 107 -7 173 l-26 54
-263 0 -263 0 -6 53 c-19 171 -26 448 -31 1257 -3 560 -8 925 -15 957 -9 46
-14 54 -50 72 -80 42 -214 51 -723 50 -259 -1 -478 -3 -486 -5z"/>
</g>
</svg>
